<?xml version="1.0" encoding="utf-8"?>
<!-- Generator: Adobe Illustrator 21.1.0, SVG Export Plug-In . SVG Version: 6.00 Build 0)  -->
<svg version="1.1"
	 id="svg3765" inkscape:version="0.92.1 r15371" sodipodi:docname="download_app_store.svg" xmlns:cc="http://creativecommons.org/ns#" xmlns:dc="http://purl.org/dc/elements/1.1/" xmlns:inkscape="http://www.inkscape.org/namespaces/inkscape" xmlns:rdf="http://www.w3.org/1999/02/22-rdf-syntax-ns#" xmlns:sodipodi="http://sodipodi.sourceforge.net/DTD/sodipodi-0.dtd" xmlns:svg="http://www.w3.org/2000/svg"
	 xmlns="http://www.w3.org/2000/svg" xmlns:xlink="http://www.w3.org/1999/xlink" x="0px" y="0px" viewBox="0 0 566.9 170.1"
	 style="enable-background:new 0 0 566.9 170.1;" xml:space="preserve">
<style type="text/css">
	.st0{fill:#303234;}
</style>
<path class="st0" d="M544.1,2.2H23.2C12.3,2.2,3.5,11,3.5,21.8v126.8c0,10.8,8.8,19.7,19.6,19.7h520.9c10.8,0,19.9-8.8,19.9-19.7
	V21.8C564,11,554.9,2.2,544.1,2.2z M544.1,164.5H23.2c-8.8,0-15.9-7.1-15.9-15.9V21.8c0-8.8,7.1-15.9,15.9-15.9h520.9
	c8.8,0,15.9,7.1,15.9,15.9l0,126.8C560,157.4,552.9,164.5,544.1,164.5z"/>
<g id="g12">
	<g id="g10">
		<path id="path6" inkscape:connector-curvature="0" class="st0" d="M128.6,84.3c-0.1-13.4,11-19.9,11.5-20.2
			c-6.3-9.1-16-10.4-19.4-10.5c-8.2-0.9-16.1,4.9-20.2,4.9c-4.2,0-10.6-4.8-17.6-4.7C74,54,65.7,59.1,61.1,67.1
			c-9.4,16.3-2.4,40.2,6.6,53.4c4.5,6.4,9.8,13.6,16.7,13.4c6.7-0.3,9.3-4.3,17.4-4.3c8.1,0,10.4,4.3,17.5,4.1
			c7.2-0.1,11.8-6.5,16.2-13c5.2-7.4,7.3-14.7,7.4-15C142.6,105.7,128.7,100.4,128.6,84.3L128.6,84.3z"/>
		<path id="path8" inkscape:connector-curvature="0" class="st0" d="M115.3,45c3.6-4.5,6.1-10.7,5.4-17c-5.3,0.2-11.8,3.6-15.6,8.1
			c-3.3,3.9-6.3,10.3-5.6,16.3C105.5,52.9,111.5,49.4,115.3,45z"/>
	</g>
</g>
<g id="g30">
	<path id="path14" inkscape:connector-curvature="0" class="st0" d="M226.2,133h-9.4l-5.2-16.2h-18l-4.9,16.2h-9.2l17.8-55.3h11
		L226.2,133z M210.1,110l-4.7-14.4c-0.5-1.5-1.4-4.9-2.8-10.4h-0.2c-0.5,2.3-1.4,5.8-2.6,10.4l-4.6,14.4H210.1z"/>
	<path id="path16" inkscape:connector-curvature="0" class="st0" d="M272,112.6c0,6.8-1.8,12.1-5.5,16.1c-3.3,3.5-7.4,5.2-12.2,5.2
		c-5.2,0-9-1.9-11.3-5.7h-0.2v21h-8.9v-43c0-4.3-0.1-8.6-0.3-13.1h7.8l0.5,6.3h0.2c3-4.8,7.4-7.1,13.4-7.1c4.7,0,8.6,1.9,11.8,5.6
		C270.4,101.6,272,106.5,272,112.6z M263,112.9c0-3.9-0.9-7.1-2.6-9.6c-1.9-2.6-4.5-3.9-7.7-3.9c-2.2,0-4.2,0.7-5.9,2.2
		c-1.8,1.5-2.9,3.4-3.5,5.7c-0.3,1.1-0.4,2-0.4,2.7v6.6c0,2.9,0.9,5.3,2.7,7.3c1.8,2,4.1,3,6.9,3c3.3,0,5.9-1.3,7.8-3.9
		C262,120.5,263,117.1,263,112.9z"/>
	<path id="path18" inkscape:connector-curvature="0" class="st0" d="M317.8,112.6c0,6.8-1.8,12.1-5.5,16.1
		c-3.3,3.5-7.3,5.2-12.2,5.2c-5.2,0-9-1.9-11.3-5.7h-0.2v21h-8.9v-43c0-4.3-0.1-8.6-0.3-13.1h7.8l0.5,6.3h0.2
		c2.9-4.8,7.4-7.1,13.4-7.1c4.7,0,8.6,1.9,11.8,5.6C316.2,101.6,317.8,106.5,317.8,112.6L317.8,112.6z M308.8,112.9
		c0-3.9-0.9-7.1-2.6-9.6c-1.9-2.6-4.5-3.9-7.7-3.9c-2.2,0-4.2,0.7-5.9,2.2c-1.8,1.5-2.9,3.4-3.5,5.7c-0.3,1.1-0.4,2-0.4,2.7v6.6
		c0,2.9,0.9,5.3,2.7,7.3c1.8,2,4.1,3,6.9,3c3.3,0,5.9-1.3,7.8-3.9C307.9,120.5,308.8,117.1,308.8,112.9L308.8,112.9z"/>
	<path id="path20" inkscape:connector-curvature="0" class="st0" d="M369,117.5c0,4.7-1.6,8.5-4.9,11.5c-3.6,3.2-8.6,4.8-15.1,4.8
		c-5.9,0-10.7-1.1-14.3-3.4l2.1-7.4c3.9,2.3,8.1,3.5,12.8,3.5c3.3,0,5.9-0.8,7.8-2.3c1.9-1.5,2.8-3.5,2.8-6c0-2.2-0.8-4.1-2.3-5.7
		c-1.5-1.5-4.1-3-7.6-4.3c-9.7-3.6-14.5-8.9-14.5-15.8c0-4.5,1.7-8.3,5.1-11.2c3.4-2.9,7.9-4.4,13.5-4.4c5,0,9.2,0.9,12.5,2.6
		l-2.2,7.2c-3.1-1.7-6.6-2.5-10.6-2.5c-3.1,0-5.5,0.8-7.3,2.3c-1.5,1.4-2.2,3-2.2,5c0,2.2,0.8,4,2.5,5.4c1.5,1.3,4.2,2.7,8,4.3
		c4.8,1.9,8.2,4.2,10.5,6.7C367.9,110.5,369,113.7,369,117.5L369,117.5z"/>
	<path id="path22" inkscape:connector-curvature="0" class="st0" d="M398.3,99.8h-9.8v19.3c0,4.9,1.7,7.4,5.2,7.4
		c1.6,0,2.9-0.1,3.9-0.4l0.2,6.7c-1.7,0.7-4,1-6.9,1c-3.5,0-6.2-1.1-8.2-3.2c-2-2.1-3-5.7-3-10.7V99.8H374v-6.6h5.8v-7.3l8.7-2.6
		v9.9h9.8L398.3,99.8z"/>
	<path id="path24" inkscape:connector-curvature="0" class="st0" d="M442.3,112.7c0,6.1-1.8,11.2-5.2,15.1c-3.7,4-8.5,6.1-14.6,6.1
		c-5.8,0-10.5-1.9-14-5.8c-3.5-3.9-5.2-8.8-5.2-14.7c0-6.2,1.8-11.2,5.4-15.2c3.6-3.9,8.4-5.9,14.5-5.9c5.8,0,10.5,1.9,14.1,5.8
		C440.6,101.9,442.3,106.8,442.3,112.7L442.3,112.7z M433.1,113c0-3.7-0.8-6.8-2.4-9.5c-1.9-3.2-4.5-4.8-7.9-4.8
		c-3.6,0-6.3,1.6-8.1,4.8c-1.6,2.6-2.4,5.8-2.4,9.6c0,3.7,0.8,6.8,2.4,9.4c1.9,3.2,4.6,4.8,8,4.8c3.4,0,6-1.6,7.9-4.8
		C432.3,119.9,433.1,116.7,433.1,113z"/>
	<path id="path26" inkscape:connector-curvature="0" class="st0" d="M471.1,100.9c-0.9-0.2-1.8-0.2-2.8-0.2c-3.1,0-5.5,1.2-7.2,3.5
		c-1.5,2.1-2.2,4.7-2.2,7.9V133H450l0.1-27.3c0-4.6-0.1-8.8-0.3-12.5h7.7l0.3,7.6h0.2c0.9-2.6,2.4-4.7,4.4-6.3
		c2-1.4,4.1-2.1,6.4-2.1c0.8,0,1.6,0.1,2.2,0.2L471.1,100.9z"/>
	<path id="path28" inkscape:connector-curvature="0" class="st0" d="M510.7,111.2c0,1.6-0.1,2.9-0.3,4h-26.6c0.1,3.9,1.4,6.9,3.9,9
		c2.2,1.9,5.1,2.8,8.7,2.8c3.9,0,7.5-0.6,10.7-1.9l1.4,6.1c-3.8,1.6-8.2,2.5-13.4,2.5c-6.2,0-11-1.8-14.6-5.5
		c-3.5-3.6-5.3-8.5-5.3-14.6c0-6,1.6-11,4.9-15c3.4-4.3,8.1-6.4,13.9-6.4c5.7,0,10.1,2.1,13,6.4C509.5,102,510.7,106.2,510.7,111.2
		L510.7,111.2z M502.2,108.9c0.1-2.6-0.5-4.9-1.7-6.8c-1.5-2.5-3.9-3.7-7.1-3.7c-2.9,0-5.2,1.2-7,3.6c-1.5,1.9-2.3,4.2-2.6,6.9
		L502.2,108.9L502.2,108.9z"/>
</g>
<g id="g60">
	<g id="g58">
		<path id="path32" inkscape:connector-curvature="0" class="st0" d="M207.2,43.7c0,4.9-1.5,8.6-4.4,11c-2.7,2.3-6.6,3.4-11.6,3.4
			c-2.5,0-4.6-0.1-6.4-0.3V31.2c2.3-0.4,4.8-0.6,7.5-0.6c4.8,0,8.3,1,10.8,3.1C205.8,36.1,207.2,39.4,207.2,43.7z M202.6,43.9
			c0-3.2-0.8-5.6-2.5-7.3c-1.7-1.7-4.1-2.5-7.4-2.5c-1.4,0-2.5,0.1-3.5,0.3v20.3c0.5,0.1,1.5,0.1,2.9,0.1c3.3,0,5.9-0.9,7.7-2.8
			C201.7,50.1,202.6,47.4,202.6,43.9L202.6,43.9z"/>
		<path id="path34" inkscape:connector-curvature="0" class="st0" d="M231.5,48c0,3-0.9,5.5-2.6,7.4c-1.8,2-4.2,3-7.2,3
			c-2.9,0-5.2-1-6.9-2.9c-1.7-1.9-2.6-4.3-2.6-7.2c0-3,0.9-5.5,2.6-7.4c1.8-1.9,4.1-2.9,7.1-2.9c2.9,0,5.2,1,6.9,2.9
			C230.7,42.7,231.5,45.1,231.5,48z M227,48.2c0-1.8-0.4-3.4-1.2-4.6c-0.9-1.6-2.2-2.3-3.9-2.3c-1.7,0-3.1,0.8-4,2.3
			c-0.8,1.3-1.2,2.9-1.2,4.7c0,1.8,0.4,3.4,1.2,4.6c0.9,1.6,2.3,2.3,3.9,2.3c1.7,0,3-0.8,3.9-2.4C226.6,51.5,227,50,227,48.2
			L227,48.2z"/>
		<path id="path36" inkscape:connector-curvature="0" class="st0" d="M264.1,38.4L258,58h-4l-2.5-8.5c-0.6-2.1-1.2-4.2-1.6-6.3h-0.1
			c-0.4,2.2-0.9,4.3-1.6,6.3l-2.7,8.5h-4l-5.8-19.6h4.5l2.2,9.3c0.5,2.2,1,4.3,1.3,6.3h0.1c0.3-1.6,0.9-3.7,1.6-6.2l2.8-9.3h3.5
			l2.7,9.1c0.6,2.2,1.2,4.4,1.6,6.4h0.1c0.3-2,0.7-4.2,1.3-6.4l2.4-9.1L264.1,38.4L264.1,38.4z"/>
		<path id="path38" inkscape:connector-curvature="0" class="st0" d="M286.7,58h-4.4V46.8c0-3.5-1.3-5.2-3.9-5.2
			c-1.3,0-2.3,0.5-3.1,1.4c-0.8,1-1.2,2.1-1.2,3.4V58h-4.4V44c0-1.7-0.1-3.6-0.2-5.6h3.8l0.2,3.1h0.1c0.5-1,1.3-1.7,2.3-2.4
			c1.2-0.7,2.5-1.1,3.9-1.1c1.8,0,3.3,0.6,4.6,1.8c1.5,1.4,2.3,3.6,2.3,6.5V58z"/>
		<path id="path40" inkscape:connector-curvature="0" class="st0" d="M298.7,58h-4.3V29.4h4.3V58z"/>
		<path id="path42" inkscape:connector-curvature="0" class="st0" d="M324.3,48c0,3-0.9,5.5-2.6,7.4c-1.8,2-4.2,3-7.2,3
			c-2.9,0-5.2-1-6.9-2.9c-1.7-1.9-2.6-4.3-2.6-7.2c0-3,0.9-5.5,2.6-7.4c1.8-1.9,4.1-2.9,7.1-2.9c2.9,0,5.2,1,6.9,2.9
			C323.4,42.7,324.3,45.1,324.3,48z M319.8,48.2c0-1.8-0.4-3.4-1.2-4.6c-0.9-1.6-2.2-2.3-3.9-2.3c-1.8,0-3.1,0.8-4,2.3
			c-0.8,1.3-1.2,2.9-1.2,4.7c0,1.8,0.4,3.4,1.2,4.6c0.9,1.6,2.3,2.3,3.9,2.3c1.7,0,3-0.8,3.9-2.4C319.4,51.5,319.8,50,319.8,48.2
			L319.8,48.2z"/>
		<path id="path44" inkscape:connector-curvature="0" class="st0" d="M345.3,58h-3.9l-0.3-2.3H341c-1.3,1.8-3.2,2.7-5.7,2.7
			c-1.8,0-3.3-0.6-4.5-1.8c-1-1.1-1.5-2.4-1.5-4c0-2.4,1-4.2,3-5.5c2-1.3,4.8-1.9,8.4-1.9V45c0-2.6-1.4-3.9-4.1-3.9
			c-1.9,0-3.6,0.5-5.1,1.4l-0.9-2.9c1.8-1.1,4.1-1.7,6.7-1.7c5.1,0,7.7,2.7,7.7,8.1v7.2C345.1,55.3,345.2,56.8,345.3,58L345.3,58z
			 M340.8,51.2v-3c-4.8-0.1-7.2,1.2-7.2,3.9c0,1,0.3,1.8,0.8,2.3c0.6,0.5,1.3,0.8,2.1,0.8c1,0,1.8-0.3,2.7-0.9
			c0.8-0.6,1.3-1.4,1.5-2.3C340.8,51.8,340.8,51.5,340.8,51.2L340.8,51.2z"/>
		<path id="path46" inkscape:connector-curvature="0" class="st0" d="M370.1,58h-3.9l-0.2-3.1h-0.1c-1.2,2.4-3.3,3.6-6.3,3.6
			c-2.4,0-4.3-0.9-5.9-2.8s-2.3-4.3-2.3-7.2c0-3.2,0.8-5.7,2.5-7.7c1.6-1.8,3.6-2.7,6-2.7c2.6,0,4.5,0.9,5.5,2.7h0.1V29.4h4.4v23.3
			C369.9,54.6,370,56.4,370.1,58L370.1,58z M365.6,49.7v-3.3c0-0.6,0-1-0.1-1.4c-0.2-1-0.8-1.9-1.6-2.6c-0.8-0.7-1.8-1.1-2.9-1.1
			c-1.6,0-2.9,0.6-3.8,1.9c-0.9,1.3-1.4,2.9-1.4,5c0,1.9,0.4,3.5,1.3,4.7c0.9,1.3,2.2,1.9,3.8,1.9c1.4,0,2.6-0.5,3.4-1.6
			C365.1,52.3,365.6,51.1,365.6,49.7z"/>
		<path id="path48" inkscape:connector-curvature="0" class="st0" d="M407.3,48c0,3-0.9,5.5-2.6,7.4c-1.8,2-4.2,3-7.2,3
			c-2.9,0-5.2-1-6.9-2.9c-1.7-1.9-2.6-4.3-2.6-7.2c0-3,0.9-5.5,2.6-7.4c1.8-1.9,4.1-2.9,7.1-2.9c2.9,0,5.2,1,6.9,2.9
			C406.4,42.7,407.3,45.1,407.3,48z M402.8,48.2c0-1.8-0.4-3.4-1.2-4.6c-0.9-1.6-2.2-2.3-3.9-2.3c-1.7,0-3.1,0.8-4,2.3
			c-0.8,1.3-1.2,2.9-1.2,4.7c0,1.8,0.4,3.4,1.2,4.6c0.9,1.6,2.3,2.3,3.9,2.3c1.7,0,3-0.8,3.9-2.4C402.4,51.5,402.8,50,402.8,48.2z"
			/>
		<path id="path50" inkscape:connector-curvature="0" class="st0" d="M430.7,58h-4.3V46.8c0-3.5-1.3-5.2-3.9-5.2
			c-1.3,0-2.3,0.5-3.1,1.4s-1.2,2.1-1.2,3.4V58h-4.4V44c0-1.7,0-3.6-0.2-5.6h3.8l0.2,3.1h0.1c0.5-1,1.3-1.7,2.3-2.4
			c1.2-0.7,2.5-1.1,3.9-1.1c1.8,0,3.3,0.6,4.6,1.8c1.5,1.4,2.3,3.6,2.3,6.5V58z"/>
		<path id="path52" inkscape:connector-curvature="0" class="st0" d="M460,41.7h-4.8v9.5c0,2.4,0.9,3.6,2.5,3.6
			c0.8,0,1.4-0.1,1.9-0.2l0.1,3.3c-0.9,0.3-2,0.5-3.4,0.5c-1.7,0-3.1-0.5-4-1.6c-1-1-1.5-2.8-1.5-5.3v-9.9H448v-3.3h2.9v-3.6
			l4.3-1.3v4.9h4.8L460,41.7L460,41.7z"/>
		<path id="path54" inkscape:connector-curvature="0" class="st0" d="M483,58h-4.4V46.8c0-3.5-1.3-5.3-3.9-5.3c-2,0-3.4,1-4.2,3.1
			c-0.1,0.4-0.2,1-0.2,1.6V58H466V29.4h4.3v11.8h0.1c1.4-2.1,3.3-3.2,5.9-3.2c1.8,0,3.3,0.6,4.5,1.8c1.5,1.5,2.2,3.7,2.2,6.6L483,58
			z"/>
		<path id="path56" inkscape:connector-curvature="0" class="st0" d="M506.7,47.3c0,0.8-0.1,1.4-0.2,2h-13c0.1,1.9,0.7,3.4,1.9,4.4
			c1.1,0.9,2.5,1.4,4.3,1.4c1.9,0,3.7-0.3,5.3-0.9l0.7,3c-1.9,0.8-4,1.2-6.6,1.2c-3,0-5.4-0.9-7.1-2.7c-1.7-1.8-2.6-4.2-2.6-7.2
			c0-3,0.8-5.4,2.4-7.4c1.7-2.1,4-3.1,6.8-3.1c2.8,0,5,1,6.4,3.1C506.2,42.8,506.7,44.8,506.7,47.3L506.7,47.3z M502.6,46.1
			c0-1.3-0.3-2.4-0.8-3.3c-0.8-1.2-1.9-1.8-3.5-1.8c-1.4,0-2.6,0.6-3.5,1.8c-0.7,0.9-1.2,2.1-1.3,3.4L502.6,46.1z"/>
	</g>
</g>
</svg>
