<?xml version="1.0" encoding="utf-8"?>
<!-- Generator: Adobe Illustrator 21.1.0, SVG Export Plug-In . SVG Version: 6.00 Build 0)  -->
<svg version="1.1" id="Слой_1" xmlns="http://www.w3.org/2000/svg" xmlns:xlink="http://www.w3.org/1999/xlink" x="0px" y="0px"
	 viewBox="0 0 125 125" style="enable-background:new 0 0 125 125;" xml:space="preserve">
<style type="text/css">
	.st0{fill:url(#SVGID_1_);}
</style>
<linearGradient id="SVGID_1_" gradientUnits="userSpaceOnUse" x1="0.2" y1="62.5" x2="125.2" y2="62.5">
	<stop  offset="0" style="stop-color:#A8A5E7"/>
	<stop  offset="1" style="stop-color:#404BD4"/>
</linearGradient>
<path class="st0" d="M62.7,0C28.2,0,0.2,28.1,0.2,62.5c0,34.5,28,62.5,62.5,62.5s62.5-28,62.5-62.5C125.2,28.1,97.2,0,62.7,0z
	 M82.5,34.9c0,0-6.6,0-9.3,0c-3.3,0-4,1.3-4,4.7c0,2.8,0,8.2,0,8.2h13.2l-1.3,14.4h-12v42.9h-17V62.4h-8.9V47.8h8.9
	c0,0,0-2.1,0-11.5c0-10.7,5.7-16.4,18.5-16.4c2.1,0,11.9,0,11.9,0V34.9z"/>
</svg>
