<?xml version="1.0" encoding="utf-8"?>
<!-- Generator: Adobe Illustrator 21.1.0, SVG Export Plug-In . SVG Version: 6.00 Build 0)  -->
<svg version="1.1" id="Слой_1" xmlns="http://www.w3.org/2000/svg" xmlns:xlink="http://www.w3.org/1999/xlink" x="0px" y="0px"
	 viewBox="0 0 125 125" style="enable-background:new 0 0 125 125;" xml:space="preserve">
<style type="text/css">
	.st0{fill:#131313;}
</style>
<g>
	<path class="st0" d="M62.5,11.3c16.7,0,18.7,0.1,25.3,0.4c6.1,0.3,9.4,1.3,11.6,2.2c2.9,1.1,5,2.5,7.2,4.7c2.2,2.2,3.5,4.3,4.7,7.2
		c0.9,2.2,1.9,5.5,2.2,11.6c0.3,6.6,0.4,8.6,0.4,25.3c0,16.7-0.1,18.7-0.4,25.3c-0.3,6.1-1.3,9.4-2.2,11.6c-1.1,2.9-2.5,5-4.7,7.2
		c-2.2,2.2-4.3,3.5-7.2,4.7c-2.2,0.9-5.5,1.9-11.6,2.2c-6.6,0.3-8.6,0.4-25.3,0.4c-16.7,0-18.7-0.1-25.3-0.4
		c-6.1-0.3-9.4-1.3-11.6-2.2c-2.9-1.1-5-2.5-7.2-4.7c-2.2-2.2-3.5-4.3-4.7-7.2c-0.9-2.2-1.9-5.5-2.2-11.6c-0.3-6.6-0.4-8.6-0.4-25.3
		c0-16.7,0.1-18.7,0.4-25.3c0.3-6.1,1.3-9.4,2.2-11.6c1.1-2.9,2.5-5,4.7-7.2c2.2-2.2,4.3-3.5,7.2-4.7c2.2-0.9,5.5-1.9,11.6-2.2
		C43.8,11.3,45.8,11.3,62.5,11.3 M62.5,0c-17,0-19.1,0.1-25.8,0.4c-6.7,0.3-11.2,1.4-15.2,2.9C17.4,4.9,14,7,10.5,10.5
		C7,14,4.9,17.5,3.3,21.6c-1.5,4-2.6,8.5-2.9,15.2C0.1,43.4,0,45.5,0,62.5c0,17,0.1,19.1,0.4,25.8c0.3,6.7,1.4,11.2,2.9,15.2
		c1.6,4.1,3.7,7.6,7.2,11.1c3.5,3.5,7,5.6,11.1,7.2c4,1.5,8.5,2.6,15.2,2.9c6.7,0.3,8.8,0.4,25.8,0.4c17,0,19.1-0.1,25.8-0.4
		c6.7-0.3,11.2-1.4,15.2-2.9c4.1-1.6,7.6-3.7,11.1-7.2c3.5-3.5,5.6-7,7.2-11.1c1.5-4,2.6-8.5,2.9-15.2c0.3-6.7,0.4-8.8,0.4-25.8
		c0-17-0.1-19.1-0.4-25.8c-0.3-6.7-1.4-11.2-2.9-15.2c-1.6-4.1-3.7-7.6-7.2-11.1c-3.5-3.5-7-5.6-11.1-7.2c-4-1.5-8.5-2.6-15.2-2.9
		C81.6,0.1,79.5,0,62.5,0"/>
	<path class="st0" d="M62.5,30.4c-17.7,0-32.1,14.4-32.1,32.1c0,17.7,14.4,32.1,32.1,32.1s32.1-14.4,32.1-32.1
		C94.6,44.8,80.2,30.4,62.5,30.4 M62.5,83.3C51,83.3,41.7,74,41.7,62.5S51,41.7,62.5,41.7S83.3,51,83.3,62.5S74,83.3,62.5,83.3"/>
	<path class="st0" d="M103.4,29.1c0,4.1-3.4,7.5-7.5,7.5c-4.1,0-7.5-3.4-7.5-7.5c0-4.1,3.4-7.5,7.5-7.5
		C100,21.6,103.4,25,103.4,29.1"/>
</g>
</svg>
