<?xml version="1.0" standalone="no"?>
<!DOCTYPE svg PUBLIC "-//W3C//DTD SVG 20010904//EN"
 "http://www.w3.org/TR/2001/REC-SVG-20010904/DTD/svg10.dtd">
<svg version="1.0" xmlns="http://www.w3.org/2000/svg"
 width="300.000000pt" height="300.000000pt" viewBox="0 0 300.000000 300.000000"
 preserveAspectRatio="xMidYMid meet">

<g transform="translate(0.000000,300.000000) scale(0.100000,-0.100000)"
fill="#000000" stroke="none">
<path d="M1308 2461 c-48 -11 -104 -25 -125 -31 -67 -22 -206 -96 -269 -144
-70 -53 -177 -162 -224 -231 -52 -75 -118 -224 -142 -321 -31 -126 -32 -332 0
-458 83 -331 335 -599 658 -700 535 -166 1099 154 1236 700 32 127 31 332 0
459 -28 109 -102 268 -165 351 -54 71 -164 177 -232 224 -74 51 -223 117 -315
140 -123 31 -308 36 -422 11z m404 -82 c320 -76 578 -337 660 -666 30 -120 29
-312 -1 -428 -66 -252 -245 -472 -476 -586 -148 -73 -230 -92 -400 -92 -170 0
-252 19 -400 92 -218 108 -393 312 -463 541 -130 424 71 881 473 1075 192 93
395 114 607 64z"/>
<path d="M1375 2320 c-196 -31 -389 -141 -515 -293 -63 -77 -134 -217 -161
-322 -30 -112 -30 -289 0 -400 43 -162 139 -318 260 -420 64 -54 168 -121 176
-113 3 3 10 90 15 194 6 104 11 212 13 240 l3 51 -57 27 c-90 41 -144 123
-170 254 -26 134 9 257 98 353 111 120 253 122 362 4 114 -124 139 -301 64
-468 -30 -66 -106 -142 -153 -152 -16 -4 -32 -10 -35 -15 -8 -12 23 -542 32
-551 5 -4 48 -13 97 -19 95 -12 218 -3 306 23 l45 13 11 194 c19 314 20 296
-21 310 -19 6 -56 31 -82 55 l-48 43 2 178 c1 99 10 247 20 329 18 149 18 150
43 150 l25 0 3 -277 2 -278 25 0 25 0 0 280 0 280 25 0 25 0 2 -277 3 -278 22
-3 23 -3 2 278 3 278 28 3 27 3 0 -280 0 -281 25 0 25 0 0 275 c0 239 2 276
15 282 9 3 19 3 22 -1 10 -9 41 -308 49 -462 5 -100 3 -151 -5 -177 -14 -43
-78 -101 -129 -118 l-35 -11 7 -167 c4 -91 9 -185 13 -209 l5 -42 31 19 c161
102 284 269 343 466 23 78 26 108 26 220 0 112 -3 142 -26 220 -51 169 -142
310 -269 415 -74 61 -236 142 -328 164 -84 20 -235 28 -314 16z"/>
<path d="M1031 1737 c-43 -52 -53 -184 -21 -271 20 -51 94 -136 120 -136 15 0
13 4 -20 56 -50 80 -73 165 -67 253 2 42 8 84 12 94 8 20 -8 23 -24 4z"/>
</g>
</svg>
