<?xml version="1.0" standalone="no"?>
<!DOCTYPE svg PUBLIC "-//W3C//DTD SVG 20010904//EN"
 "http://www.w3.org/TR/2001/REC-SVG-20010904/DTD/svg10.dtd">
<svg version="1.0" xmlns="http://www.w3.org/2000/svg"
 width="110.000000pt" height="110.000000pt" viewBox="0 0 110.000000 110.000000"
 preserveAspectRatio="xMidYMid meet">

<g transform="translate(0.000000,110.000000) scale(0.100000,-0.100000)"
fill="#000000" stroke="none">
<path d="M431 1005 c-243 -68 -391 -311 -340 -557 37 -178 189 -330 367 -367
356 -74 656 264 547 616 -37 120 -158 246 -282 293 -76 29 -216 36 -292 15z
m280 -55 c113 -44 207 -139 251 -255 32 -83 32 -225 0 -305 -44 -110 -142
-208 -252 -252 -78 -31 -232 -31 -310 0 -293 117 -372 491 -151 713 56 55 134
100 208 119 60 15 190 5 254 -20z"/>
<path d="M460 937 c-66 -19 -113 -44 -159 -84 -140 -119 -179 -312 -97 -478
43 -87 102 -145 194 -188 61 -29 76 -32 162 -32 86 0 101 3 162 32 91 43 151
101 194 188 86 175 38 377 -118 495 -26 19 -69 44 -95 54 -62 23 -185 30 -243
13z m65 -184 c33 -16 37 -16 70 0 73 35 159 7 195 -63 44 -86 22 -135 -124
-280 l-106 -105 -100 100 c-72 71 -96 101 -84 103 10 3 49 -28 101 -80 l84
-83 109 111 110 111 0 52 c0 47 -4 57 -34 87 -30 30 -41 34 -84 34 -35 0 -57
-6 -76 -21 l-26 -20 -26 20 c-19 15 -41 21 -76 21 -43 0 -54 -4 -84 -34 -29
-29 -34 -41 -34 -81 0 -33 -4 -45 -12 -42 -8 2 -13 21 -12 49 1 104 110 168
209 121z m-21 -164 l20 -84 19 63 c21 68 36 75 51 24 9 -31 11 -32 63 -32 76
0 67 -24 -10 -28 -52 -3 -58 -1 -66 20 -7 20 -10 15 -25 -37 -9 -33 -19 -66
-21 -73 -8 -24 -23 -3 -35 50 -7 29 -16 71 -22 93 l-10 40 -18 -45 -18 -45
-57 0 c-38 0 -60 4 -63 13 -2 8 11 12 50 12 l53 0 24 60 c12 34 28 59 34 57 7
-2 20 -41 31 -88z"/>
</g>
</svg>
