<?xml version="1.0" standalone="no"?>
<!DOCTYPE svg PUBLIC "-//W3C//DTD SVG 20010904//EN"
 "http://www.w3.org/TR/2001/REC-SVG-20010904/DTD/svg10.dtd">
<svg version="1.0" xmlns="http://www.w3.org/2000/svg"
 width="110.000000pt" height="110.000000pt" viewBox="0 0 110.000000 110.000000"
 preserveAspectRatio="xMidYMid meet">

<g transform="translate(0.000000,110.000000) scale(0.100000,-0.100000)"
fill="#000000" stroke="none">
<path d="M431 1005 c-202 -57 -350 -247 -351 -452 -1 -225 160 -427 378 -472
309 -64 596 191 569 507 -15 178 -137 338 -306 403 -74 28 -215 35 -290 14z
m280 -55 c113 -44 207 -139 251 -255 32 -83 32 -225 0 -305 -44 -110 -142
-208 -252 -252 -78 -31 -232 -31 -310 0 -293 117 -372 491 -151 713 56 55 134
100 208 119 60 15 190 5 254 -20z"/>
<path d="M450 935 c-238 -67 -356 -336 -245 -561 42 -86 102 -144 193 -187 61
-29 76 -32 162 -32 86 0 101 3 162 32 93 44 151 100 196 191 34 71 37 82 37
166 0 106 -20 170 -75 243 -44 59 -121 118 -180 139 -66 23 -184 27 -250 9z
m150 -154 c0 -42 68 -69 98 -39 10 10 18 7 38 -13 22 -23 24 -29 13 -52 -17
-38 -4 -73 31 -85 26 -9 30 -16 30 -46 0 -27 -4 -36 -17 -36 -42 0 -71 -68
-41 -98 10 -10 7 -18 -13 -37 -22 -23 -27 -24 -57 -13 -38 15 -60 5 -80 -35
-10 -22 -20 -27 -48 -27 -25 0 -34 4 -34 17 0 42 -68 71 -98 41 -10 -10 -18
-7 -38 13 -22 23 -24 29 -13 52 17 38 4 73 -31 85 -26 9 -30 16 -30 46 0 27 4
36 17 36 42 0 71 68 41 98 -10 10 -7 18 13 38 23 22 29 24 52 13 38 -17 73 -4
85 31 9 26 16 30 46 30 29 0 36 -4 36 -19z"/>
<path d="M483 670 c-87 -52 -83 -198 6 -245 33 -17 108 -20 131 -5 24 15 -35
70 -76 70 -46 0 -63 9 -79 41 -30 58 -9 92 30 49 10 -11 26 -20 37 -20 25 0
24 42 -2 65 -28 25 -25 35 11 35 43 0 92 -49 87 -89 -2 -22 5 -38 27 -61 34
-36 45 -27 45 38 0 85 -56 142 -140 142 -27 0 -58 -8 -77 -20z"/>
</g>
</svg>
